<svg width="16" height="10" viewBox="0 0 16 10" fill="none" xmlns="http://www.w3.org/2000/svg">
    <path d="M0.292893 7.79289C-0.0976311 8.18342 -0.0976311 8.81658 0.292893 9.20711C0.683417 9.59763 1.31658 9.59763 1.70711 9.20711L0.292893 7.79289ZM8 1.5L8.70711 0.792893L8 0.0857865L7.29289 0.792893L8 1.5ZM14.2929 9.20711C14.6834 9.59763 15.3166 9.59763 15.7071 9.20711C16.0976 8.81658 16.0976 8.18342 15.7071 7.79289L14.2929 9.20711ZM1.70711 9.20711L8.70711 2.20711L7.29289 0.792893L0.292893 7.79289L1.70711 9.20711ZM7.29289 2.20711L14.2929 9.20711L15.7071 7.79289L8.70711 0.792893L7.29289 2.20711Z" fill="#3E2E4D"/>
</svg>
